<?xml version="1.0" encoding="UTF-8" standalone="no"?>
<!-- Created with Inkscape (http://www.inkscape.org/) -->

<svg
   xmlns:dc="http://purl.org/dc/elements/1.1/"
   xmlns:cc="http://creativecommons.org/ns#"
   xmlns:rdf="http://www.w3.org/1999/02/22-rdf-syntax-ns#"
   xmlns:svg="http://www.w3.org/2000/svg"
   xmlns="http://www.w3.org/2000/svg"
   xmlns:sodipodi="http://sodipodi.sourceforge.net/DTD/sodipodi-0.dtd"
   xmlns:inkscape="http://www.inkscape.org/namespaces/inkscape"
   id="svg4136"
   version="1.1"
   inkscape:version="0.91 r13725"
   width="2200"
   height="1100"
   viewBox="0 0 2200 1100"
   sodipodi:docname="hack.svg">
  <metadata
     id="metadata4142">
    <rdf:RDF>
      <cc:Work
         rdf:about="">
        <dc:format>image/svg+xml</dc:format>
        <dc:type
           rdf:resource="http://purl.org/dc/dcmitype/StillImage" />
        <dc:title></dc:title>
      </cc:Work>
    </rdf:RDF>
  </metadata>
  <defs
     id="defs4140" />
  <sodipodi:namedview
     pagecolor="#ffffff"
     bordercolor="#666666"
     borderopacity="1"
     objecttolerance="10"
     gridtolerance="10"
     guidetolerance="10"
     inkscape:pageopacity="0"
     inkscape:pageshadow="2"
     inkscape:window-width="2560"
     inkscape:window-height="1017"
     id="namedview4138"
     showgrid="false"
     inkscape:zoom="0.70710678"
     inkscape:cx="1700.4873"
     inkscape:cy="577.56282"
     inkscape:window-x="-8"
     inkscape:window-y="-8"
     inkscape:window-maximized="1"
     inkscape:current-layer="svg4136" />
  <rect
     style="opacity:1;fill:#000000;fill-opacity:1;stroke:none"
     id="rect4292"
     width="2200"
     height="1100"
     x="0"
     y="0" />
  <path
     style="opacity:1;fill:#878787;fill-opacity:1;stroke:none"
     d=""
     id="path4170"
     inkscape:connector-curvature="0" />
  <path
     style="opacity:1;fill:#878787;fill-opacity:1;stroke:none"
     d="m 135.94315,540.05006 0,-162.2871 163.7792,-163.88147 C 389.80084,123.74667 464.15676,50.000017 464.95772,50.000017 c 0.80087,0 1.45617,72.423663 1.45617,160.941473 l 0,160.9415 -165.23537,165.22708 -165.23537,165.22707 0,-162.28708 z"
     id="path4198"
     inkscape:connector-curvature="0" />
  <path
     style="opacity:1;fill:#878787;fill-opacity:1;stroke:none"
     d="m 481.69578,887.62999 0,-162.37002 165.23537,-165.22707 165.23537,-165.22709 0,162.37002 0,162.37001 L 646.93115,884.77293 481.69578,1050 l 0,-162.37001 z"
     id="path4204"
     inkscape:connector-curvature="0" />
  <path
     style="opacity:1;fill:#878787;fill-opacity:1;stroke:none"
     d="m 136.0186,889.42666 0,-159.14404 159.02711,0 c 87.46491,0 159.02711,0.16131 159.02711,0.35847 0,0.31668 -255.25179,255.56707 -300.50393,300.50221 l -17.55029,17.4274 0,-159.14404 z"
     id="path4210"
     inkscape:connector-curvature="0" />
  <path
     style="opacity:1;fill:#e78701;fill-opacity:1;stroke:none"
     d="m 147.48002,714.16469 c 0,-0.31675 243.88311,-244.19862 297.39979,-297.39828 l 20.65442,-20.53206 0,159.14442 0,159.14442 -159.02711,0 c -87.46491,0 -159.0271,-0.16132 -159.0271,-0.35849 z"
     id="path4212"
     inkscape:connector-curvature="0" />
  <path
     style="opacity:1;fill:#808080;fill-opacity:0;stroke:none"
     d="m 481.11613,586.91314 c -1.0297,-64.44989 -1.47954,-136.63227 -0.99964,-160.40529 l 0.87255,-43.22371 160.06274,-0.69678 c 88.03451,-0.38324 160.06275,0.22845 160.06275,1.35932 0,1.13086 -71.5784,73.62681 -159.06311,161.10209 L 482.9883,704.09476 481.11613,586.91314 Z"
     id="path4246"
     inkscape:connector-curvature="0" />
  <path
     style="opacity:1;fill:#ffffff;fill-opacity:1;stroke:none"
     d="m 481.11613,586.91314 c -1.0297,-64.44989 -1.47954,-136.63227 -0.99964,-160.40529 l 0.87255,-43.22371 160.06274,-0.69678 c 88.03451,-0.38324 160.06275,0.22845 160.06275,1.35932 0,1.13086 -71.5784,73.62681 -159.06311,161.10209 L 482.9883,704.09476 481.11613,586.91314 Z"
     id="path4248"
     inkscape:connector-curvature="0" />
  <g
     id="g4369"
     transform="translate(0,20)">
    <path
       sodipodi:nodetypes="ccccscsssccccccsssccccccc"
       inkscape:connector-curvature="0"
       id="path4349"
       d="m 1079.9946,490.51168 0,-197.21215 24.087,0 24.087,0 0.047,62.47561 c 0.026,34.36158 1.1214,64.16904 2.4356,66.23882 1.8309,2.88346 8.1912,1.64585 27.2072,-5.2941 20.2976,-7.40777 30.1852,-9.18581 54.2899,-9.76289 28.1011,-0.67276 30.1428,-0.28627 43.8757,8.30495 7.9217,4.95581 18.2099,14.43014 22.8624,21.05406 l 8.4594,12.04349 0.9528,118.92947 1.041,120.60884 -23.483,-0.008 -22.8642,0.0802 -1.041,-107.76168 c -0.7004,-72.49681 -2.175,-110.35031 -4.5062,-115.67206 -7.968,-18.18957 -47.5617,-19.11078 -99.4904,-2.31478 l -9.7853,3.165 0,111.1688 0,111.16879 -24.087,0 -24.087,0 0,-197.21216 z"
       style="opacity:1;fill:#ffffff;fill-opacity:1;stroke:none" />
    <path
       sodipodi:nodetypes="scsssssssscssscsccssssssscccssssss"
       inkscape:connector-curvature="0"
       id="path4351"
       d="m 1413.8152,690.7126 c -39.4415,-6.74964 -59.8604,-35.82296 -59.8018,-85.14799 0.023,-19.53913 1.5024,-27.88973 7.0501,-39.80303 8.3781,-17.99115 24.6156,-33.08859 40.2594,-37.43296 16.6237,-4.61639 72.0454,-3.92028 91.509,1.14937 9.1671,2.3877 18.5972,4.75876 20.956,5.26903 5.7753,1.24933 7.3569,-31.23695 2.6294,-54.00888 -4.8014,-23.12885 -11.9483,-29.43761 -36.1136,-31.87834 -17.5123,-1.76878 -76.8197,4.71737 -89.3659,6.18674 0,0 -0.6426,-3.58065 -1.6984,-26.23205 l -0.6303,-13.52322 18.0652,-3.73023 c 24.7929,-5.11941 93.0435,-5.61828 108.9748,-0.79655 17.2276,5.21408 31.0272,17.30959 41.67,36.52445 l 8.9315,16.12489 0.9791,99.3588 c 0.5387,54.64733 -0.5013,105.11709 -0.5835,112.155 l -0.06,12.70782 -16.8334,0.0884 c -18.1813,0.0955 -17.9615,0.19893 -23.3532,0.0743 -2.858,-0.0661 -2.1711,1.02795 -2.4775,-15.80707 -0.024,-1.30809 -14.8128,2.78235 -30.8615,8.23883 -31.7596,10.79812 -57.5028,14.20349 -79.2451,10.48272 z m 53.0766,-37.64532 c 11.5918,-2.4438 28.2334,-7.33765 36.981,-10.87521 l 15.9051,-6.43193 -0.8507,-31.97023 -0.8506,-31.97024 -12.0435,-3.96201 c -6.6239,-2.1791 -25.5924,-4.72674 -42.1522,-5.66142 -48.6005,-2.74313 -62.4756,7.4151 -62.4756,45.73948 0,27.79107 7.9526,39.92629 30.6856,46.82439 10.8176,3.28252 11.3159,3.25828 34.8009,-1.69283 z"
       style="opacity:1;fill:#ffffff;fill-opacity:1;stroke:none" />
    <path
       sodipodi:nodetypes="ssssscccssssssccss"
       inkscape:connector-curvature="0"
       id="path4355"
       d="m 1694.7344,686.26646 c -28.1924,-8.79813 -50.1441,-32.10203 -59.3084,-62.96185 -7.0468,-23.72917 -11.2822,-67.39361 -9.084,-93.65158 5.6882,-67.94433 26.1278,-104.43474 66.0361,-117.8929 18.9916,-6.40443 71.3782,-7.15212 94.5592,-1.34962 l 15.9474,3.99184 -0.893,16.97855 -0.8931,16.97857 -13.5489,-0.5039 c -65.2834,-2.42797 -70.8166,-2.21098 -81.9989,3.21578 -6.1837,3.00101 -14.094,10.06891 -17.5782,15.70645 -9.866,15.96361 -15.8242,57.23261 -13.8592,95.99483 2.6865,52.99408 13.6126,78.20385 37.2796,86.01464 10.7938,3.56231 69.4743,-0.58293 89.2815,-2.85983 0,0 0.331,2.05815 2.6347,25.14924 l 0.8003,11.95615 -14.3473,3.91545 c -20.5685,5.61327 -78.886,4.35558 -95.0278,-0.68182 z"
       style="opacity:1;fill:#ffffff;fill-opacity:1;stroke:none" />
    <path
       sodipodi:nodetypes="cscccccccscsccscscscscscc"
       inkscape:connector-curvature="0"
       id="path4357"
       d="m 1866.7738,683.96025 c -0.1724,-2.24676 -0.6454,-90.47672 -0.2162,-196.45944 l 0.8427,-194.38334 23.0813,0.0275 23.4563,-0.0975 0.7868,120.98019 0.7871,120.98017 48.0017,-63.64757 48.0018,-63.64756 18.2374,0.0411 c 22.2188,0.0501 21.2763,0.1679 35.0544,0.25915 -0.7718,2.01161 -23.2296,33.71979 -44.6127,61.71219 -21.3831,27.99239 -43.1813,57.2329 -48.4409,64.97891 l -9.5625,14.08366 54.2275,67.12151 c -7.9396,-9.82744 10.0086,10.84726 49.7167,71.80845 -14.2718,0.0676 -16.4928,-0.0653 -29.1839,-0.0399 l -23.0823,0.0461 -47.0717,-61.63867 c -25.8894,-33.90129 -48.3585,-62.43399 -49.9314,-63.40603 -1.771,-1.09454 -2.8595,22.37047 -2.8595,61.63867 l 0,63.40603 -22.6761,0 c -15.3663,0 -20.3998,0.20101 -24.3798,-0.0513 z"
       style="opacity:1;fill:#ffffff;fill-opacity:1;stroke:none" />
  </g>
</svg>
